<svg id="Capa_1" data-name="Capa 1" xmlns="http://www.w3.org/2000/svg" viewBox="0 0 407.01 407.4"><defs><style>.cls-1{fill:#854997;}</style></defs><path class="cls-1" d="M497.74,259.89c-12.5,21.92-25.1,43.79-37.46,65.79-13.08,23.31-26.2,46.6-38.78,70.19-8.21,15.38-20.84,22.21-37.77,22.21q-72.18,0-144.36-.07c-3.2,0-5,.93-6.41,3.8-4.64,9.22-9.57,18.29-14.38,27.42-3.42,6.49-1.71,9.39,5.59,9.39H456.92v40.73h-4.47c-79.54,0-159.07-.28-238.61.17-25,.14-48.52-23.65-40.27-52.57a76.22,76.22,0,0,1,6.7-15.95c7.2-13,14.79-25.7,22.36-38.44a6,6,0,0,0,.28-6.5q-35.19-74-70.14-148.07c-1.18-2.51-2.48-3.51-5.32-3.46-10.73.17-21.47.07-32.21.07H90.72V194c1.24-.06,2.39-.17,3.54-.17,20,0,40,0,60.05-.08,2.69,0,3.9.84,4.95,3.25,4.86,11.15,10.05,22.15,14.85,33.33,1.33,3.11,2.91,4.19,6.4,4.19q147.14-.18,294.28,0A37.07,37.07,0,0,1,487.48,237c5.93,2.21,8.31,7.76,10.26,13.35Z" transform="translate(-90.72 -193.79)"/><path class="cls-1" d="M206.62,601.19c-7-1.93-13.72-4.43-19.51-9.14a40.44,40.44,0,0,1,5.94-67.15c14.16-7.72,28.33-7.22,41.7,1.52,12.9,8.43,19.26,20.81,18.66,36.34-.68,17.7-14.68,33.84-32.25,37.61a27.18,27.18,0,0,0-2.61.82Z" transform="translate(-90.72 -193.79)"/><path class="cls-1" d="M410.24,601.19c-7-1.93-13.71-4.43-19.5-9.14a40.44,40.44,0,0,1,5.94-67.15c14.16-7.72,28.33-7.22,41.7,1.52,12.89,8.43,19.26,20.81,18.66,36.34-.68,17.7-14.68,33.84-32.26,37.61-.88.19-1.74.54-2.61.82Z" transform="translate(-90.72 -193.79)"/></svg>